<svg width="1474" height="510" viewBox="0 0 1474 510" fill="none" xmlns="http://www.w3.org/2000/svg">
<path d="M517.13 214.92V275.43C517.127 279.081 515.676 282.582 513.094 285.164C510.512 287.746 507.011 289.197 503.36 289.2H173.73C170.085 289.189 166.593 287.734 164.019 285.153C161.445 282.572 160 279.075 160 275.43V214.92C160 211.271 161.45 207.771 164.03 205.19C166.611 202.61 170.111 201.16 173.76 201.16H503.36C507.01 201.16 510.511 202.609 513.093 205.19C515.675 207.77 517.127 211.27 517.13 214.92Z" fill="#0566C6"/>
<path d="M181.48 201.16H39.0203C33.9172 201.16 29.7803 205.297 29.7803 210.4V279.96C29.7803 285.063 33.9172 289.2 39.0203 289.2H181.48C186.583 289.2 190.72 285.063 190.72 279.96V210.4C190.72 205.297 186.583 201.16 181.48 201.16Z" fill="#005499"/>
<path d="M177.72 273.62V216.74C177.72 215.315 176.565 214.16 175.14 214.16H45.3597C43.9348 214.16 42.7797 215.315 42.7797 216.74V273.62C42.7797 275.045 43.9348 276.2 45.3597 276.2H175.14C176.565 276.2 177.72 275.045 177.72 273.62Z" stroke="#004699" stroke-miterlimit="10"/>
<path d="M326.43 19.71C326.43 17.1805 324.379 15.13 321.85 15.13C319.32 15.13 317.27 17.1805 317.27 19.71V53.47C317.27 55.9995 319.32 58.05 321.85 58.05C324.379 58.05 326.43 55.9995 326.43 53.47V19.71Z" fill="#005499"/>
<path d="M328.7 19.71C328.7 17.1805 326.649 15.13 324.12 15.13C321.591 15.13 319.54 17.1805 319.54 19.71V53.47C319.54 55.9995 321.591 58.05 324.12 58.05C326.649 58.05 328.7 55.9995 328.7 53.47V19.71Z" fill="#009EED"/>
<path d="M324.21 23.87C325.016 23.87 325.67 22.7776 325.67 21.43C325.67 20.0824 325.016 18.99 324.21 18.99C323.404 18.99 322.75 20.0824 322.75 21.43C322.75 22.7776 323.404 23.87 324.21 23.87Z" fill="#005499"/>
<path d="M324.78 23.87C325.587 23.87 326.24 22.7776 326.24 21.43C326.24 20.0824 325.587 18.99 324.78 18.99C323.974 18.99 323.32 20.0824 323.32 21.43C323.32 22.7776 323.974 23.87 324.78 23.87Z" fill="#0566C6"/>
<path d="M324.21 54.89C325.016 54.89 325.67 53.7976 325.67 52.45C325.67 51.1024 325.016 50.01 324.21 50.01C323.404 50.01 322.75 51.1024 322.75 52.45C322.75 53.7976 323.404 54.89 324.21 54.89Z" fill="#005499"/>
<path d="M324.78 54.89C325.587 54.89 326.24 53.7976 326.24 52.45C326.24 51.1024 325.587 50.01 324.78 50.01C323.974 50.01 323.32 51.1024 323.32 52.45C323.32 53.7976 323.974 54.89 324.78 54.89Z" fill="#0566C6"/>
<path d="M363.26 0H275.58C271.83 0 268.79 3.03999 268.79 6.79V25.34C268.79 29.09 271.83 32.13 275.58 32.13H363.26C367.01 32.13 370.05 29.09 370.05 25.34V6.79C370.05 3.03999 367.01 0 363.26 0Z" fill="#005499"/>
<path d="M371.13 0H283.45C279.7 0 276.66 3.03999 276.66 6.79V25.34C276.66 29.09 279.7 32.13 283.45 32.13H371.13C374.88 32.13 377.92 29.09 377.92 25.34V6.79C377.92 3.03999 374.88 0 371.13 0Z" fill="#0566C6"/>
<path d="M371.46 25.33V6.78995C371.46 6.60769 371.312 6.45996 371.13 6.45996L283.47 6.45996C283.288 6.45996 283.14 6.60769 283.14 6.78995V25.33C283.14 25.5122 283.288 25.66 283.47 25.66L371.13 25.66C371.312 25.66 371.46 25.5122 371.46 25.33Z" fill="#1CCDF7"/>
<path d="M343.65 40.26H161.84C157.168 40.26 153.38 44.0477 153.38 48.72V115.38C153.38 120.052 157.168 123.84 161.84 123.84H343.65C348.322 123.84 352.11 120.052 352.11 115.38V48.72C352.11 44.0477 348.322 40.26 343.65 40.26Z" fill="#005499"/>
<path d="M376.52 145.47V186.98C376.543 188.332 376.368 189.679 376 190.98C375.147 193.927 373.359 196.517 370.906 198.36C368.453 200.203 365.468 201.2 362.4 201.2H152C148.929 201.204 145.939 200.21 143.483 198.366C141.026 196.523 139.235 193.93 138.38 190.98C138.005 189.7 137.816 188.373 137.82 187.04V145.47C137.816 143.762 138.125 142.067 138.73 140.47C139.747 137.775 141.562 135.454 143.934 133.819C146.305 132.184 149.12 131.312 152 131.32H362.36C365.24 131.319 368.051 132.196 370.418 133.835C372.786 135.473 374.597 137.795 375.61 140.49C376.214 142.081 376.522 143.769 376.52 145.47V145.47Z" fill="#008BEA"/>
<path d="M159.51 192.49V139.98C159.51 138.633 159.196 137.304 158.593 136.1C157.99 134.895 157.115 133.847 156.037 133.04C154.958 132.232 153.707 131.687 152.381 131.448C151.056 131.208 149.692 131.281 148.4 131.66L42.1096 162.98C40.3143 163.511 38.7386 164.607 37.6176 166.107C36.4967 167.606 35.8905 169.428 35.8896 171.3V192.52C35.8896 194.819 36.8031 197.025 38.429 198.651C40.055 200.277 42.2602 201.19 44.5597 201.19H150.84C151.981 201.19 153.111 200.965 154.164 200.527C155.218 200.09 156.175 199.448 156.981 198.64C157.786 197.832 158.424 196.872 158.858 195.817C159.292 194.762 159.514 193.631 159.51 192.49Z" fill="#0566C6"/>
<g style="mix-blend-mode:multiply" opacity="0.65">
<path d="M376 190.98C375.147 193.927 373.359 196.517 370.906 198.36C368.454 200.203 365.468 201.2 362.4 201.2H151.4C153.606 201.065 155.677 200.094 157.191 198.485C158.706 196.876 159.549 194.75 159.55 192.54V190.98H376Z" fill="#008BEA"/>
</g>
<path d="M159.52 140.49V139.98C159.516 137.766 158.667 135.637 157.147 134.028C155.627 132.419 153.55 131.45 151.34 131.32H362.34C365.219 131.319 368.03 132.196 370.398 133.835C372.765 135.473 374.577 137.795 375.59 140.49H159.52Z" fill="#009EED"/>
<path d="M354.57 40.26H172.76C168.087 40.26 164.3 44.0477 164.3 48.72V115.38C164.3 120.052 168.087 123.84 172.76 123.84H354.57C359.242 123.84 363.03 120.052 363.03 115.38V48.72C363.03 44.0477 359.242 40.26 354.57 40.26Z" fill="#0566C6"/>
<path d="M271.49 70.47H271.48C265.195 70.47 260.1 75.565 260.1 81.85V165.82C260.1 172.105 265.195 177.2 271.48 177.2H271.49C277.775 177.2 282.87 172.105 282.87 165.82V81.85C282.87 75.565 277.775 70.47 271.49 70.47Z" fill="#005499"/>
<path d="M277.14 70.47H277.13C270.845 70.47 265.75 75.565 265.75 81.85V165.82C265.75 172.105 270.845 177.2 277.13 177.2H277.14C283.425 177.2 288.52 172.105 288.52 165.82V81.85C288.52 75.565 283.425 70.47 277.14 70.47Z" fill="#009EED"/>
<path d="M277.35 92.2099C279.35 92.2099 280.97 89.4923 280.97 86.14C280.97 82.7876 279.35 80.0699 277.35 80.0699C275.351 80.0699 273.73 82.7876 273.73 86.14C273.73 89.4923 275.351 92.2099 277.35 92.2099Z" fill="#005499"/>
<path d="M278.76 92.2099C280.759 92.2099 282.38 89.4923 282.38 86.14C282.38 82.7876 280.759 80.0699 278.76 80.0699C276.76 80.0699 275.14 82.7876 275.14 86.14C275.14 89.4923 276.76 92.2099 278.76 92.2099Z" fill="#0566C6"/>
<path d="M277.35 169.36C279.35 169.36 280.97 166.642 280.97 163.29C280.97 159.938 279.35 157.22 277.35 157.22C275.351 157.22 273.73 159.938 273.73 163.29C273.73 166.642 275.351 169.36 277.35 169.36Z" fill="#005499"/>
<path d="M278.76 169.36C280.759 169.36 282.38 166.642 282.38 163.29C282.38 159.938 280.759 157.22 278.76 157.22C276.76 157.22 275.14 159.938 275.14 163.29C275.14 166.642 276.76 169.36 278.76 169.36Z" fill="#0566C6"/>
<path d="M288.52 80.8199L320.31 123.83H288.52V80.8199Z" fill="#005499"/>
<path d="M292.17 15.9201H291.5V19.0901H289.91V10.8101H292.48C294.33 10.8101 295.48 11.6901 295.48 13.3001C295.504 13.8198 295.351 14.3321 295.045 14.7535C294.74 15.1749 294.301 15.4804 293.8 15.6201L296 18.8701L294.32 19.1701L292.17 15.9201ZM292.36 12.0801H291.48V14.7101H292.29C293.29 14.7101 293.88 14.2401 293.88 13.3801C293.88 12.5201 293.36 12.0801 292.36 12.0801V12.0801Z" fill="#C2FCFF"/>
<path d="M299.67 19.1501C299.21 19.1545 298.753 19.0766 298.32 18.9201V21.1001L296.88 21.32V13.3201H298.11L298.24 14.1101C298.446 13.8347 298.711 13.6084 299.016 13.4476C299.32 13.2868 299.656 13.1955 300 13.1801C301.21 13.1801 302.18 14.0901 302.18 16.0301C302.2 18.1901 301 19.1501 299.67 19.1501ZM299.67 14.4501C299.404 14.4747 299.147 14.5607 298.92 14.7012C298.692 14.8418 298.501 15.033 298.36 15.2601V17.7501C298.707 17.9235 299.092 18.0093 299.48 18.0001C300.22 18.0001 300.79 17.3901 300.79 16.1201C300.79 14.8501 300.28 14.4501 299.63 14.4501H299.67Z" fill="#C2FCFF"/>
<path d="M565.36 289.2H0V314.16H565.36V289.2Z" fill="#004699"/>
<path d="M538.58 314.16H0V509.98H538.58V314.16Z" fill="#005499"/>
<path d="M400.69 187.08H487.41C488.803 187.08 490.138 187.633 491.123 188.618C492.107 189.602 492.66 190.938 492.66 192.33V201.18H395.44V192.34C395.439 191.65 395.574 190.966 395.837 190.328C396.1 189.69 396.487 189.11 396.975 188.621C397.462 188.133 398.041 187.745 398.679 187.481C399.317 187.216 400 187.08 400.69 187.08V187.08Z" fill="#005499"/>
<g style="mix-blend-mode:multiply" opacity="0.65">
<path d="M517.13 214.92V275.43C517.127 279.081 515.675 282.582 513.094 285.164C510.512 287.746 507.011 289.197 503.36 289.2H371.43L409.92 201.2H503.36C507.003 201.2 510.498 202.644 513.079 205.215C515.66 207.787 517.116 211.277 517.13 214.92Z" fill="#008BEA"/>
</g>
<path d="M738.48 228.59V239.08C729.727 250.335 724.983 264.191 725 278.45V328.98C725 337.712 723.28 346.359 719.938 354.427C716.596 362.494 711.698 369.825 705.522 375.999C699.347 382.173 692.016 387.071 683.948 390.412C675.88 393.752 667.233 395.471 658.5 395.47H658C640.138 395.47 623.007 388.374 610.377 375.744C597.746 363.113 590.65 345.982 590.65 328.12V224.4C590.65 211.879 585.677 199.871 576.823 191.017C567.969 182.164 555.961 177.19 543.44 177.19H687.09C693.84 177.19 700.523 178.52 706.759 181.103C712.994 183.686 718.66 187.472 723.432 192.245C728.204 197.018 731.989 202.685 734.571 208.921C737.153 215.157 738.482 221.84 738.48 228.59V228.59Z" fill="#78F2FF"/>
<path d="M912.409 279.98V383.28C909.306 387.053 905.412 390.099 901.003 392.202C896.593 394.305 891.775 395.414 886.89 395.45H658.52C676.149 395.447 693.055 388.444 705.521 375.979C717.988 363.514 724.994 346.609 725 328.98V278.45C724.998 270.007 726.66 261.646 729.891 253.846C733.121 246.045 737.857 238.957 743.827 232.987C749.797 227.017 756.885 222.281 764.685 219.051C772.486 215.821 780.846 214.159 789.289 214.16H846.549C864.011 214.157 880.758 221.09 893.108 233.433C905.459 245.776 912.402 262.519 912.409 279.98V279.98Z" fill="#43E4FF"/>
<path d="M495.66 167.5V184.42C492.119 188.38 490.164 193.507 490.17 198.82V229.09C490.168 235.62 487.572 241.883 482.953 246.5C478.334 251.116 472.071 253.71 465.54 253.71H457.67C452.366 253.71 447.279 251.603 443.528 247.852C439.778 244.101 437.67 239.014 437.67 233.71V166.57C437.67 164.368 437.237 162.188 436.394 160.154C435.551 158.12 434.315 156.272 432.758 154.715C431.201 153.159 429.352 151.925 427.317 151.083C425.283 150.241 423.102 149.809 420.9 149.81H477.9C480.229 149.801 482.537 150.252 484.692 151.136C486.846 152.021 488.804 153.323 490.454 154.966C492.104 156.61 493.414 158.563 494.307 160.714C495.201 162.865 495.66 165.171 495.66 167.5V167.5Z" fill="#78F2FF"/>
<path d="M912.59 383.06L912.41 383.28" stroke="#004699" stroke-miterlimit="10"/>
<path d="M1135.19 247.75V408.75C1135.19 417.212 1133.52 425.592 1130.29 433.41C1127.05 441.228 1122.3 448.332 1116.32 454.316C1110.33 460.3 1103.23 465.046 1095.41 468.285C1087.59 471.523 1079.21 473.19 1070.75 473.19H990.15C969.533 473.187 949.761 464.996 935.183 450.418C920.604 435.839 912.413 416.067 912.41 395.45V279.98C912.41 262.517 905.474 245.77 893.127 233.421C880.78 221.072 864.033 214.133 846.57 214.13H1073C1085.34 214.144 1097.47 217.22 1108.33 223.083C1119.18 228.945 1128.41 237.411 1135.18 247.72L1135.19 247.75Z" fill="#78F2FF"/>
<path d="M1473.88 468.3H1473.26" stroke="#004699" stroke-miterlimit="10"/>
<path d="M437.71 166.57V187.08H404.18V166.57C404.287 162.195 406.1 158.034 409.232 154.977C412.365 151.921 416.568 150.209 420.945 150.209C425.321 150.209 429.525 151.921 432.657 154.977C435.79 158.034 437.603 162.195 437.71 166.57V166.57Z" fill="#43E4FF"/>
<path d="M590.63 224.4V253.71H465.54C472.071 253.71 478.334 251.116 482.953 246.499C487.571 241.883 490.167 235.62 490.17 229.09V198.82C490.17 193.085 492.448 187.585 496.502 183.529C500.556 179.473 506.055 177.193 511.79 177.19H543.42C555.941 177.19 567.949 182.164 576.803 191.017C585.656 199.871 590.63 211.879 590.63 224.4V224.4Z" fill="#43E4FF"/>
<path d="M1135.19 247.75C1135.19 247.75 1145.35 261.98 1145.35 280.89V374.89H1130V247.75H1135.19Z" fill="#78F2FF"/>
<path d="M1387.18 353.86V423.62C1387.04 426.636 1386.47 429.617 1385.48 432.47C1381.23 444.388 1373.4 454.699 1363.06 461.989C1352.72 469.28 1340.37 473.192 1327.72 473.19H1070.72C1087.81 473.19 1104.2 466.401 1116.29 454.316C1128.37 442.231 1135.16 425.841 1135.16 408.75V353.98H1147C1147.08 356.366 1148.08 358.628 1149.8 360.288C1151.51 361.949 1153.81 362.877 1156.19 362.877C1158.58 362.877 1160.88 361.949 1162.59 360.288C1164.31 358.628 1165.31 356.366 1165.39 353.98H1176.39C1176.47 356.366 1177.47 358.628 1179.19 360.288C1180.9 361.949 1183.2 362.877 1185.58 362.877C1187.97 362.877 1190.27 361.949 1191.98 360.288C1193.7 358.628 1194.7 356.366 1194.78 353.98H1205.78C1205.86 356.366 1206.86 358.628 1208.58 360.288C1210.29 361.949 1212.59 362.877 1214.97 362.877C1217.36 362.877 1219.66 361.949 1221.37 360.288C1223.09 358.628 1224.09 356.366 1224.17 353.98H1235.17C1235.25 356.366 1236.25 358.628 1237.97 360.288C1239.68 361.949 1241.98 362.877 1244.36 362.877C1246.75 362.877 1249.05 361.949 1250.76 360.288C1252.48 358.628 1253.48 356.366 1253.56 353.98H1264.56C1264.64 356.366 1265.64 358.628 1267.36 360.288C1269.07 361.949 1271.37 362.877 1273.75 362.877C1276.14 362.877 1278.44 361.949 1280.15 360.288C1281.87 358.628 1282.87 356.366 1282.95 353.98H1293.95C1294.03 356.366 1295.03 358.628 1296.75 360.288C1298.46 361.949 1300.76 362.877 1303.14 362.877C1305.53 362.877 1307.83 361.949 1309.54 360.288C1311.26 358.628 1312.26 356.366 1312.34 353.98H1323.34C1323.42 356.366 1324.42 358.628 1326.14 360.288C1327.85 361.949 1330.15 362.877 1332.53 362.877C1334.92 362.877 1337.22 361.949 1338.93 360.288C1340.65 358.628 1341.65 356.366 1341.73 353.98H1352.73C1352.81 356.366 1353.81 358.628 1355.53 360.288C1357.24 361.949 1359.54 362.877 1361.92 362.877C1364.31 362.877 1366.61 361.949 1368.32 360.288C1370.04 358.628 1371.04 356.366 1371.12 353.98H1376.05V353.85L1387.18 353.86Z" fill="#43E4FF"/>
<g style="mix-blend-mode:multiply" opacity="0.65">
<path d="M425.64 187.08L419.43 201.16H437.71V187.08H425.64Z" fill="#008BEA"/>
</g>
<path d="M472.69 164.13H447.8V166.13H472.69V164.13Z" fill="#1CCDF7"/>
<path d="M483.8 169.65H447.8V170.4H483.8V169.65Z" fill="#1CCDF7"/>
<path d="M468.65 174.07H447.8V174.82H468.65V174.07Z" fill="#1CCDF7"/>
<path d="M472.69 213.12H447.8V215.12H472.69V213.12Z" fill="#1CCDF7"/>
<path d="M483.8 218.64H447.8V219.39H483.8V218.64Z" fill="#1CCDF7"/>
<path d="M468.65 223.06H447.8V223.81H468.65V223.06Z" fill="#1CCDF7"/>
<path d="M456.98 184.2H447.8V185.2H456.98V184.2Z" fill="#1CCDF7"/>
<path d="M452.74 187.72H447.8V188.47H452.74V187.72Z" fill="#1CCDF7"/>
<path d="M480.98 184.2H471.8V185.2H480.98V184.2Z" fill="#1CCDF7"/>
<path d="M476.74 187.72H471.8V188.47H476.74V187.72Z" fill="#1CCDF7"/>
<path d="M456.98 229.85H447.8V230.85H456.98V229.85Z" fill="#1CCDF7"/>
<path d="M452.74 233.36H447.8V234.11H452.74V233.36Z" fill="#1CCDF7"/>
<path d="M480.98 229.85H471.8V230.85H480.98V229.85Z" fill="#1CCDF7"/>
<path d="M476.74 233.36H471.8V234.11H476.74V233.36Z" fill="#1CCDF7"/>
<path d="M456.98 195.03H447.8V196.03H456.98V195.03Z" fill="#1CCDF7"/>
<path d="M452.74 198.54H447.8V199.29H452.74V198.54Z" fill="#1CCDF7"/>
<path d="M480.98 195.03H471.8V196.03H480.98V195.03Z" fill="#1CCDF7"/>
<path d="M476.74 198.54H471.8V199.29H476.74V198.54Z" fill="#1CCDF7"/>
<path d="M479 174.07H472.46V174.82H479V174.07Z" fill="#1CCDF7"/>
<path d="M490.67 179.59H447.8V179.84H490.67V179.59Z" fill="#1CCDF7"/>
<path d="M485.78 207.07H447.8V207.32H485.78V207.07Z" fill="#1CCDF7"/>
<path d="M674.17 209.88H610.86V211.88H674.17V209.88Z" fill="#1CCDF7"/>
<path d="M701.34 219.63H613.26V220.38H701.34V219.63Z" fill="#1CCDF7"/>
<path d="M664.27 227.88H613.26V228.63H664.27V227.88Z" fill="#1CCDF7"/>
<path d="M674.17 301.26H613.26V303.26H674.17V301.26Z" fill="#1CCDF7"/>
<path d="M701.34 311.02H613.26V311.77H701.34V311.02Z" fill="#1CCDF7"/>
<path d="M664.27 319.27H613.26V320.02H664.27V319.27Z" fill="#1CCDF7"/>
<path d="M635.71 246.9H613.26V247.9H635.71V246.9Z" fill="#1CCDF7"/>
<path d="M625.35 253.34H613.26V254.09H625.35V253.34Z" fill="#1CCDF7"/>
<path d="M694.43 246.9H671.98V247.9H694.43V246.9Z" fill="#1CCDF7"/>
<path d="M684.07 253.34H671.98V254.09H684.07V253.34Z" fill="#1CCDF7"/>
<path d="M635.71 332.05H613.26V333.05H635.71V332.05Z" fill="#1CCDF7"/>
<path d="M625.35 338.49H615.66V339.24H625.35V338.49Z" fill="#1CCDF7"/>
<path d="M694.43 332.05H671.98V333.05H694.43V332.05Z" fill="#1CCDF7"/>
<path d="M684.07 338.49H671.98V339.24H684.07V338.49Z" fill="#1CCDF7"/>
<path d="M635.71 267.09H613.26V268.09H635.71V267.09Z" fill="#1CCDF7"/>
<path d="M625.35 273.53H613.26V274.28H625.35V273.53Z" fill="#1CCDF7"/>
<path d="M694.43 267.09H671.98V268.09H694.43V267.09Z" fill="#1CCDF7"/>
<path d="M684.07 273.53H671.98V274.28H684.07V273.53Z" fill="#1CCDF7"/>
<path d="M689.59 227.88H673.59V228.63H689.59V227.88Z" fill="#1CCDF7"/>
<path d="M718.15 237.97H613.26V238.22H718.15V237.97Z" fill="#1CCDF7"/>
<path d="M706.18 289.23H613.26V289.48H706.18V289.23Z" fill="#1CCDF7"/>
<path d="M1042.43 244.18H942.34V246.18H1042.43V244.18Z" fill="#1CCDF7"/>
<path d="M1084.56 257.47H947.99V258.22H1084.56V257.47Z" fill="#1CCDF7"/>
<path d="M1027.08 268.91H947.99V269.66H1027.08V268.91Z" fill="#1CCDF7"/>
<path d="M1042.43 370.88H947.99V372.88H1042.43V370.88Z" fill="#1CCDF7"/>
<path d="M1084.56 384.16H947.99V384.91H1084.56V384.16Z" fill="#1CCDF7"/>
<path d="M1027.08 395.6H947.99V396.35H1027.08V395.6Z" fill="#1CCDF7"/>
<path d="M982.8 295.31H947.99V296.31H982.8V295.31Z" fill="#1CCDF7"/>
<path d="M966.74 304.2H947.99V304.95H966.74V304.2Z" fill="#1CCDF7"/>
<path d="M1073.85 295.31H1039.04V296.31H1073.85V295.31Z" fill="#1CCDF7"/>
<path d="M1057.79 304.2H1039.04V304.95H1057.79V304.2Z" fill="#1CCDF7"/>
<path d="M982.81 413.37H951.1V414.37H982.81V413.37Z" fill="#1CCDF7"/>
<path d="M966.73 422.26H954.48V423.01H966.73V422.26Z" fill="#1CCDF7"/>
<path d="M1073.85 413.37H1039.04V414.37H1073.85V413.37Z" fill="#1CCDF7"/>
<path d="M1057.79 422.26H1039.04V423.01H1057.79V422.26Z" fill="#1CCDF7"/>
<path d="M982.8 323.31H947.99V324.31H982.8V323.31Z" fill="#1CCDF7"/>
<path d="M966.74 332.19H947.99V332.94H966.74V332.19Z" fill="#1CCDF7"/>
<path d="M1073.85 323.31H1039.04V324.31H1073.85V323.31Z" fill="#1CCDF7"/>
<path d="M1057.79 332.19H1039.04V332.94H1057.79V332.19Z" fill="#1CCDF7"/>
<path d="M1066.35 268.91H1041.54V269.66H1066.35V268.91Z" fill="#1CCDF7"/>
<path d="M1110.62 282.79H947.99V283.04H1110.62V282.79Z" fill="#1CCDF7"/>
<path d="M1092.06 353.86H947.99V354.11H1092.06V353.86Z" fill="#1CCDF7"/>
</svg>
