<svg width="914" height="507" viewBox="0 0 914 507" fill="none" xmlns="http://www.w3.org/2000/svg">
<path d="M79.62 207.26H251.5V507.36H6.28041e-07V286.89C-0.0013127 276.433 2.05715 266.079 6.05784 256.418C10.0585 246.757 15.9231 237.978 23.3166 230.584C30.7102 223.189 39.4878 217.324 49.1484 213.322C58.809 209.32 69.1633 207.26 79.62 207.26Z" fill="#43E3FF"/>
<path d="M360.34 322.71V219.44C357.237 215.667 353.343 212.621 348.933 210.518C344.523 208.415 339.706 207.306 334.82 207.27H106.45C115.183 207.269 123.83 208.988 131.898 212.328C139.966 215.669 147.297 220.567 153.472 226.741C159.647 232.915 164.546 240.245 167.888 248.313C171.23 256.381 172.95 265.028 172.95 273.76V324.27C172.949 332.713 174.611 341.074 177.841 348.874C181.072 356.675 185.807 363.763 191.777 369.733C197.747 375.703 204.835 380.438 212.636 383.669C220.436 386.899 228.797 388.561 237.24 388.56H294.5C311.963 388.557 328.71 381.618 341.057 369.269C353.404 356.92 360.34 340.173 360.34 322.71Z" fill="#78F1FF"/>
<path d="M289.08 368L288.9 367.78" stroke="#004698" stroke-miterlimit="10"/>
<path d="M850.37 282.76H849.75" stroke="#004698" stroke-miterlimit="10"/>
<path d="M404.16 88.2C393.703 88.1987 383.349 90.2572 373.688 94.2579C364.026 98.2586 355.248 104.123 347.854 111.517C340.459 118.91 334.593 127.688 330.591 137.348C326.589 147.009 324.53 157.363 324.53 167.82V319.82C324.531 328.812 322.761 337.716 319.32 346.024C315.88 354.332 310.836 361.88 304.478 368.239C298.12 374.597 290.571 379.64 282.264 383.081C273.956 386.521 265.052 388.291 256.06 388.29H324.53H527.53C533.904 388.29 540.216 387.034 546.105 384.595C551.994 382.156 557.345 378.58 561.853 374.073C566.36 369.566 569.936 364.215 572.375 358.325C574.814 352.436 576.07 346.124 576.07 339.75V88.2H404.16Z" fill="#43E3FF"/>
<path d="M655.71 88.2H404.21C421.046 88.2 437.192 94.8881 449.097 106.793C461.002 118.698 467.69 134.844 467.69 151.68V217.81C467.69 234.023 474.131 249.571 485.595 261.035C497.059 272.5 512.608 278.94 528.82 278.94H719.16V151.71C719.164 143.374 717.526 135.118 714.339 127.415C711.153 119.712 706.48 112.712 700.588 106.814C694.697 100.917 687.701 96.2374 680 93.0436C672.3 89.8498 664.046 88.204 655.71 88.2Z" fill="#78F1FF"/>
<path d="M913.16 0V211.69C913.16 229.534 906.071 246.647 893.454 259.264C880.836 271.882 863.724 278.97 845.88 278.97H594.38C610.508 278.671 625.875 272.054 637.174 260.541C648.473 249.029 654.803 233.541 654.8 217.41V0H664.4C664.4 2.84047 665.528 5.5646 667.537 7.57311C669.545 9.58163 672.269 10.71 675.11 10.71C677.95 10.71 680.674 9.58163 682.683 7.57311C684.691 5.5646 685.82 2.84047 685.82 0H695.36C695.36 2.84047 696.488 5.5646 698.497 7.57311C700.505 9.58163 703.229 10.71 706.07 10.71C708.91 10.71 711.634 9.58163 713.643 7.57311C715.651 5.5646 716.78 2.84047 716.78 0H726.32C726.276 1.43333 726.52 2.86087 727.039 4.19794C727.557 5.53501 728.339 6.75438 729.337 7.78375C730.335 8.81311 731.53 9.6315 732.851 10.1904C734.171 10.7492 735.591 11.0372 737.025 11.0372C738.459 11.0372 739.878 10.7492 741.199 10.1904C742.519 9.6315 743.714 8.81311 744.712 7.78375C745.711 6.75438 746.492 5.53501 747.011 4.19794C747.529 2.86087 747.773 1.43333 747.729 0H757.28C757.236 1.43333 757.48 2.86087 757.999 4.19794C758.517 5.53501 759.298 6.75438 760.297 7.78375C761.295 8.81311 762.49 9.6315 763.811 10.1904C765.131 10.7492 766.551 11.0372 767.985 11.0372C769.419 11.0372 770.838 10.7492 772.159 10.1904C773.479 9.6315 774.674 8.81311 775.672 7.78375C776.671 6.75438 777.452 5.53501 777.971 4.19794C778.489 2.86087 778.733 1.43333 778.689 0H788.24C788.196 1.43333 788.44 2.86087 788.958 4.19794C789.477 5.53501 790.258 6.75438 791.257 7.78375C792.255 8.81311 793.45 9.6315 794.771 10.1904C796.091 10.7492 797.511 11.0372 798.945 11.0372C800.379 11.0372 801.798 10.7492 803.119 10.1904C804.439 9.6315 805.634 8.81311 806.633 7.78375C807.631 6.75438 808.412 5.53501 808.931 4.19794C809.449 2.86087 809.694 1.43333 809.65 0H819.189C819.189 2.84047 820.318 5.5646 822.327 7.57311C824.335 9.58163 827.059 10.71 829.9 10.71C832.74 10.71 835.464 9.58163 837.473 7.57311C839.481 5.5646 840.61 2.84047 840.61 0H850.16C850.116 1.43333 850.36 2.86087 850.878 4.19794C851.397 5.53501 852.178 6.75438 853.177 7.78375C854.175 8.81311 855.37 9.6315 856.69 10.1904C858.011 10.7492 859.431 11.0372 860.865 11.0372C862.299 11.0372 863.718 10.7492 865.039 10.1904C866.359 9.6315 867.554 8.81311 868.553 7.78375C869.551 6.75438 870.332 5.53501 870.851 4.19794C871.369 2.86087 871.614 1.43333 871.57 0H881.16C881.116 1.43333 881.36 2.86087 881.878 4.19794C882.397 5.53501 883.178 6.75438 884.177 7.78375C885.175 8.81311 886.37 9.6315 887.69 10.1904C889.011 10.7492 890.431 11.0372 891.865 11.0372C893.299 11.0372 894.718 10.7492 896.039 10.1904C897.359 9.6315 898.554 8.81311 899.553 7.78375C900.551 6.75438 901.332 5.53501 901.851 4.19794C902.369 2.86087 902.614 1.43333 902.57 0H913.16Z" fill="#43E3FF"/>
<path d="M608.38 101.28H475.63V103.28H608.38V101.28Z" fill="#1CCCF6"/>
<path d="M594.4 115.57H483.79V116.32H594.4V115.57Z" fill="#1CCCF6"/>
<path d="M572.73 127.01H487.37V127.76H572.73V127.01Z" fill="#1CCCF6"/>
<path d="M587.27 228.98H495.77V230.98H587.27V228.98Z" fill="#1CCCF6"/>
<path d="M622.77 243.63H502.53V244.38H622.77V243.63Z" fill="#1CCCF6"/>
<path d="M592.73 253.71H514.69V254.46H592.73V253.71Z" fill="#1CCCF6"/>
<path d="M537.77 153.42H491.6V154.42H537.77V153.42Z" fill="#1CCCF6"/>
<path d="M516.46 164.05H491.6V164.8H516.46V164.05Z" fill="#1CCCF6"/>
<path d="M633.44 153.42H587.27V154.42H633.44V153.42Z" fill="#1CCCF6"/>
<path d="M612.13 162.3H587.27V163.05H612.13V162.3Z" fill="#1CCCF6"/>
<path d="M537.77 181.41H491.6V182.41H537.77V181.41Z" fill="#1CCCF6"/>
<path d="M516.46 190.3H491.6V191.05H516.46V190.3Z" fill="#1CCCF6"/>
<path d="M634.23 181.41H588.06V182.41H634.23V181.41Z" fill="#1CCCF6"/>
<path d="M612.92 190.3H588.06V191.05H612.92V190.3Z" fill="#1CCCF6"/>
<path d="M602.45 127.01H582.54V127.76H602.45V127.01Z" fill="#1CCCF6"/>
<path d="M634.24 127.01H614.33V127.76H634.24V127.01Z" fill="#1CCCF6"/>
<path d="M654.82 140.89H490.09V141.14H654.82V140.89Z" fill="#1CCCF6"/>
<path d="M654.82 211.97H491.6V212.22H654.82V211.97Z" fill="#1CCCF6"/>
<path d="M316.15 216.7H183.4V218.7H316.15V216.7Z" fill="#1CCCF6"/>
<path d="M302.17 230.98H191.56V231.73H302.17V230.98Z" fill="#1CCCF6"/>
<path d="M280.5 242.42H195.14V243.17H280.5V242.42Z" fill="#1CCCF6"/>
<path d="M295.04 344.39H203.54V346.39H295.04V344.39Z" fill="#1CCCF6"/>
<path d="M309.56 359.29H210.3V359.79H309.56V359.29Z" fill="#1CCCF6"/>
<path d="M300.5 369.12H222.46V369.87H300.5V369.12Z" fill="#1CCCF6"/>
<path d="M245.55 268.83H199.38V269.83H245.55V268.83Z" fill="#1CCCF6"/>
<path d="M224.24 279.46H199.38V280.21H224.24V279.46Z" fill="#1CCCF6"/>
<path d="M324.55 268.83H295.04V269.83H324.55V268.83Z" fill="#1CCCF6"/>
<path d="M319.9 277.71H295.04V278.46H319.9V277.71Z" fill="#1CCCF6"/>
<path d="M245.55 296.82H199.38V297.82H245.55V296.82Z" fill="#1CCCF6"/>
<path d="M224.24 305.71H199.38V306.46H224.24V305.71Z" fill="#1CCCF6"/>
<path d="M324.55 296.82H295.83V297.82H324.55V296.82Z" fill="#1CCCF6"/>
<path d="M320.69 305.71H295.83V306.46H320.69V305.71Z" fill="#1CCCF6"/>
<path d="M310.22 242.42H290.31V243.17H310.22V242.42Z" fill="#1CCCF6"/>
<path d="M324.55 242.42H322.1V243.17H324.55V242.42Z" fill="#1CCCF6"/>
<path d="M324.55 256.3H197.86V256.55H324.55V256.3Z" fill="#1CCCF6"/>
<path d="M324.55 327.38H199.38V327.63H324.55V327.38Z" fill="#1CCCF6"/>
</svg>
